<svg width="36" height="36" viewBox="0 0 36 36" fill="none" xmlns="http://www.w3.org/2000/svg">
<rect width="36" height="36" rx="6" fill="#FFF59F"/>
<path d="M13 15.4999L8 17.9999L17.6422 22.8211C17.7734 22.8866 17.839 22.9194 17.9078 22.9324C17.9687 22.9438 18.0313 22.9438 18.0922 22.9324C18.161 22.9194 18.2266 22.8866 18.3578 22.8211L28 17.9999L23 15.4999M13 20.4999L8 22.9999L17.6422 27.8211C17.7734 27.8866 17.839 27.9194 17.9078 27.9324C17.9687 27.9438 18.0313 27.9438 18.0922 27.9324C18.161 27.9194 18.2266 27.8866 18.3578 27.8211L28 22.9999L23 20.4999M8 12.9999L17.6422 8.17883C17.7734 8.11324 17.839 8.08044 17.9078 8.06753C17.9687 8.0561 18.0313 8.0561 18.0922 8.06753C18.161 8.08044 18.2266 8.11324 18.3578 8.17883L28 12.9999L18.3578 17.8211C18.2266 17.8866 18.161 17.9194 18.0922 17.9324C18.0313 17.9438 17.9687 17.9438 17.9078 17.9324C17.839 17.9194 17.7734 17.8866 17.6422 17.8211L8 12.9999Z" stroke="#755900" stroke-width="2" stroke-linecap="round" stroke-linejoin="round"/>
</svg>
