<svg width="36" height="36" viewBox="0 0 36 36" fill="none" xmlns="http://www.w3.org/2000/svg">
<rect width="36" height="36" rx="6" fill="#FFF59F"/>
<path d="M10 23V22.8C10 21.1198 10 20.2798 10.327 19.638C10.6146 19.0735 11.0735 18.6146 11.638 18.327C12.2798 18 13.1198 18 14.8 18H21.2C22.8802 18 23.7202 18 24.362 18.327C24.9265 18.6146 25.3854 19.0735 25.673 19.638C26 20.2798 26 21.1198 26 22.8V23M10 23C8.89543 23 8 23.8954 8 25C8 26.1046 8.89543 27 10 27C11.1046 27 12 26.1046 12 25C12 23.8954 11.1046 23 10 23ZM26 23C24.8954 23 24 23.8954 24 25C24 26.1046 24.8954 27 26 27C27.1046 27 28 26.1046 28 25C28 23.8954 27.1046 23 26 23ZM18 13L18 23M18 13C16.8954 13 16 12.1046 16 11C16 9.89543 16.8954 9 18 9C19.1046 9 20 9.89543 20 11C20 12.1046 19.1046 13 18 13ZM18 23C16.8954 23 16 23.8954 16 25C16 26.1046 16.8954 27 18 27C19.1046 27 20 26.1046 20 25C20 23.8954 19.1046 23 18 23Z" stroke="#755900" stroke-width="2" stroke-linecap="round" stroke-linejoin="round"/>
</svg>
