<svg width="36" height="36" viewBox="0 0 36 36" fill="none" xmlns="http://www.w3.org/2000/svg">
<rect width="36" height="36" rx="6" fill="#FFF59F"/>
<path d="M27 22V13.2C27 12.0799 27 11.5198 26.782 11.092C26.5903 10.7157 26.2843 10.4097 25.908 10.218C25.4802 10 24.9201 10 23.8 10H12.2C11.0799 10 10.5198 10 10.092 10.218C9.71569 10.4097 9.40973 10.7157 9.21799 11.092C9 11.5198 9 12.0799 9 13.2V22M10.6667 26H25.3333C25.9533 26 26.2633 26 26.5176 25.9319C27.2078 25.7469 27.7469 25.2078 27.9319 24.5176C28 24.2633 28 23.9533 28 23.3333C28 23.0233 28 22.8683 27.9659 22.7412C27.8735 22.3961 27.6039 22.1265 27.2588 22.0341C27.1317 22 26.9767 22 26.6667 22H9.33333C9.02334 22 8.86835 22 8.74118 22.0341C8.39609 22.1265 8.12654 22.3961 8.03407 22.7412C8 22.8683 8 23.0233 8 23.3333C8 23.9533 8 24.2633 8.06815 24.5176C8.25308 25.2078 8.79218 25.7469 9.48236 25.9319C9.73669 26 10.0467 26 10.6667 26Z" stroke="#755900" stroke-width="2" stroke-linecap="round" stroke-linejoin="round"/>
<path d="M21.7188 20.7592C21.7188 20.1106 21.7188 19.7863 21.6387 19.5225C21.4585 18.9284 20.9936 18.4634 20.3995 18.2832C20.1356 18.2032 19.8113 18.2032 19.1628 18.2032H16.8392C16.1906 18.2032 15.8663 18.2032 15.6025 18.2832C15.0084 18.4634 14.5435 18.9284 14.3632 19.5225C14.2832 19.7863 14.2832 20.1106 14.2832 20.7592M20.0922 14.4854C20.0922 15.6404 19.1559 16.5767 18.001 16.5767C16.846 16.5767 15.9097 15.6404 15.9097 14.4854C15.9097 13.3304 16.846 12.3942 18.001 12.3942C19.1559 12.3942 20.0922 13.3304 20.0922 14.4854Z" stroke="#755900" stroke-width="1.6" stroke-linecap="round" stroke-linejoin="round"/>
</svg>
