<svg width="36" height="36" viewBox="0 0 36 36" fill="none" xmlns="http://www.w3.org/2000/svg">
<rect width="36" height="36" rx="6" fill="#FFF59F"/>
<path d="M12 21L14 23L18.5 18.5M14 14V11.2C14 10.0799 14 9.51984 14.218 9.09202C14.4097 8.71569 14.7157 8.40973 15.092 8.21799C15.5198 8 16.0799 8 17.2 8H24.8C25.9201 8 26.4802 8 26.908 8.21799C27.2843 8.40973 27.5903 8.71569 27.782 9.09202C28 9.51984 28 10.0799 28 11.2V18.8C28 19.9201 28 20.4802 27.782 20.908C27.5903 21.2843 27.2843 21.5903 26.908 21.782C26.4802 22 25.9201 22 24.8 22H22M11.2 28H18.8C19.9201 28 20.4802 28 20.908 27.782C21.2843 27.5903 21.5903 27.2843 21.782 26.908C22 26.4802 22 25.9201 22 24.8V17.2C22 16.0799 22 15.5198 21.782 15.092C21.5903 14.7157 21.2843 14.4097 20.908 14.218C20.4802 14 19.9201 14 18.8 14H11.2C10.0799 14 9.51984 14 9.09202 14.218C8.71569 14.4097 8.40973 14.7157 8.21799 15.092C8 15.5198 8 16.0799 8 17.2V24.8C8 25.9201 8 26.4802 8.21799 26.908C8.40973 27.2843 8.71569 27.5903 9.09202 27.782C9.51984 28 10.0799 28 11.2 28Z" stroke="#755900" stroke-width="2" stroke-linecap="round" stroke-linejoin="round"/>
</svg>
