<svg width="36" height="36" viewBox="0 0 36 36" fill="none" xmlns="http://www.w3.org/2000/svg">
<rect width="36" height="36" rx="6" fill="#FFF59F"/>
<path d="M15 13H10.6C10.0399 13 9.75992 13 9.54601 13.109C9.35785 13.2049 9.20487 13.3578 9.10899 13.546C9 13.7599 9 14.0399 9 14.6V25.4C9 25.9601 9 26.2401 9.10899 26.454C9.20487 26.6422 9.35785 26.7951 9.54601 26.891C9.75992 27 10.0399 27 10.6 27H15M15 27H21M15 27L15 10.6C15 10.0399 15 9.75992 15.109 9.54601C15.2049 9.35785 15.3578 9.20487 15.546 9.10899C15.7599 9 16.0399 9 16.6 9L19.4 9C19.9601 9 20.2401 9 20.454 9.10899C20.6422 9.20487 20.7951 9.35785 20.891 9.54601C21 9.75992 21 10.0399 21 10.6V27M21 17H25.4C25.9601 17 26.2401 17 26.454 17.109C26.6422 17.2049 26.7951 17.3578 26.891 17.546C27 17.7599 27 18.0399 27 18.6V25.4C27 25.9601 27 26.2401 26.891 26.454C26.7951 26.6422 26.6422 26.7951 26.454 26.891C26.2401 27 25.9601 27 25.4 27H21" stroke="#755900" stroke-width="2" stroke-linecap="round" stroke-linejoin="round"/>
</svg>
