<svg width="36" height="36" viewBox="0 0 36 36" fill="none" xmlns="http://www.w3.org/2000/svg">
<rect width="36" height="36" rx="6" fill="#FFF59F"/>
<path d="M18 18L13.7271 14.4393C13.0923 13.9102 12.7748 13.6457 12.5466 13.3214C12.3444 13.0341 12.1943 12.7135 12.103 12.3743C12 11.9914 12 11.5782 12 10.7518V8M18 18L22.2729 14.4393C22.9077 13.9102 23.2252 13.6457 23.4534 13.3214C23.6556 13.0341 23.8057 12.7135 23.897 12.3743C24 11.9914 24 11.5782 24 10.7518V8M18 18L13.7271 21.5607C13.0923 22.0898 12.7748 22.3543 12.5466 22.6786C12.3444 22.9659 12.1943 23.2865 12.103 23.6257C12 24.0086 12 24.4218 12 25.2482V28M18 18L22.2729 21.5607C22.9077 22.0898 23.2252 22.3543 23.4534 22.6786C23.6556 22.9659 23.8057 23.2865 23.897 23.6257C24 24.0086 24 24.4218 24 25.2482V28M10 8H26M10 28H26" stroke="#755900" stroke-width="2" stroke-linecap="round" stroke-linejoin="round"/>
</svg>
